<svg height="512pt" viewBox="0 0 512 512.02493" width="512pt" xmlns="http://www.w3.org/2000/svg"><path d="m500.167969 5.144531c-7.121094-5.1718748-16.316407-6.539062-24.636719-3.667969-32.597656 11.023438-79.152344 30.035157-106.878906 67.582032-4.632813 6.300781-8.496094 13.125-11.519532 20.335937 0 .050781-.070312.085938-.085937.144531-8.332031 19.835938-9.855469 41.875-4.324219 62.667969.082032.363281.195313.722657.332032 1.066407.851562 3.109374 1.707031 6.207031 2.910156 9.25 3.082031 6.3125 4.199218 13.402343 3.199218 20.355468-3.34375 12.21875-18.953124 17.398438-32.152343 20.914063-14.226563-14.839844-28.332031-33.902344-28.332031-41.632813.9375-25.957031-11.746094-50.519531-33.449219-64.785156-1.59375-.917969-3.238281-1.742188-4.925781-2.46875-2.300782-1.070312-4.6875-1.941406-7.132813-2.609375-10.632813-3.050781-22.070313-1.171875-31.164063 5.117187-2.039062 1.574219-3.851562 3.421876-5.375 5.496094-17.300781 2.214844-31.734374 14.285156-36.976562 30.917969-.878906 2.605469-.449219 5.472656 1.152344 7.707031 1.605468 2.234375 4.1875 3.558594 6.9375 3.554688.574218.007812 1.144531-.050782 1.707031-.167969 9.222656-1.722656 18.625-2.246094 27.980469-1.5625.652344.8125 1.359375 1.582031 2.117187 2.304687 7.917969 8.140626 6.714844 17.144532-3.671875 27.527344l-30.675781 30.71875c-13.226563-3.515625-28.910156-8.695312-32.265625-20.949218-1-6.949219.117188-14.042969 3.199219-20.351563 1.171875-3.046875 2.050781-6.144531 2.910156-9.25.136719-.347656.25-.703125.335937-1.066406 5.527344-20.792969 4.003907-42.832031-4.328124-62.667969 0-.058594-.066407-.09375-.085938-.144531-3.042969-7.242188-6.9375-14.097657-11.597656-20.421875-27.722656-37.546875-74.238282-56.558594-106.878906-67.582032-8.320313-2.859374-17.507813-1.492187-24.636719 3.667969-7.46875 5.417969-11.8789065 14.101563-11.8437502 23.332031.6210932 6.707032 3.5976562 12.976563 8.4062502 17.695313-2.945313 15.882813.339843 32.292969 9.171875 45.816406-2.273438 14.828125.816406 29.980469 8.714844 42.734375-2.238282 14.859375-.496094 39.074219 16.484374 52.371094-1.636718 16.480469 4.738282 32.742188 17.136719 43.722656-1.421875 17.703125 9.007813 34.21875 25.597657 40.542969-.101563 14.457031 5.222656 28.425781 14.925781 39.140625 6.636719 6.683594 14.996093 11.394531 24.148437 13.613281-16.144531 12.851563-29.257812 29.105469-38.398437 47.605469-5.320313 9.148438-7.664063 19.730469-6.699219 30.269531l-19.113281 15.921875-23.542969-7.851562c-4.476562-1.488282-9.316406.933594-10.804688 5.410156-1.488281 4.480469.933594 9.316406 5.410157 10.804688l13.507812 4.496093-7.738281 6.445313c-3.625 3.015625-4.117188 8.398437-1.101562 12.023437 3.015624 3.621094 8.398437 4.117188 12.023437 1.097657l8.210937-6.824219 3.828126 11.503906c1.492187 4.476563 6.328124 6.898437 10.804687 5.410156 4.476563-1.492187 6.898437-6.328125 5.410156-10.804687l-5.972656-17.835938 17.261719-14.378906c9.101562 6.894531 20.417968 10.199219 31.796875 9.285156 9.855469-.117187 19.699219-.785156 29.480469-1.996094-.976563 1.65625-1.777344 3.410157-2.398438 5.230469-1.601562 4.21875-1.335938 8.921875.726562 12.933594 2.066407 4.015625 5.738282 6.960937 10.105469 8.109375 3.078125.929688 6.285157 1.378906 9.503907 1.324219 8.535156-.316407 16.957031-2.03125 24.933593-5.078125-10.238281 20.683594-14.417969 43.109375-1.476562 50.953125 2.46875 1.496093 5.304687 2.28125 8.195312 2.261719 10.714844 0 22.980469-9.984376 33.484375-23.433594 3.128906 19.132812 10.90625 35.027344 23.976563 35.027344 13.074219 0 20.847656-15.894532 23.980469-34.984376 10.503906 13.449219 22.765624 23.421876 33.492187 23.421876 2.898437.019531 5.746094-.765626 8.226563-2.269532 12.910156-7.824218 8.710937-30.257812-1.519532-50.933594 7.980469 3.03125 16.402344 4.734376 24.933594 5.035157 3.21875.050781 6.425781-.398438 9.507812-1.332031 4.316407-1.195313 7.957032-4.105469 10.070313-8.054688 2.015625-4.046875 2.289063-8.738281.757813-12.988281-.617188-1.820313-1.421876-3.574219-2.398438-5.230469 9.785156 1.210938 19.625 1.882812 29.484375 2.003906 11.378906.902344 22.691406-2.410156 31.785156-9.308594l17.261719 14.378907-5.972656 17.832031c-1.488282 4.476562.933594 9.316406 5.410156 10.804688 4.476562 1.488281 9.316406-.933594 10.804688-5.410157l3.832031-11.503906 8.207031 6.828125c2.34375 1.949219 5.554688 2.503906 8.414062 1.449219 2.863282-1.054688 4.945313-3.558594 5.460938-6.5625.519531-3.007813-.605469-6.058594-2.953125-8.011719l-7.738281-6.441406 13.507812-4.5c4.476563-1.488282 6.898438-6.324219 5.410156-10.800782-1.488281-4.476562-6.324218-6.898437-10.800781-5.410156l-23.546875 7.851563-19.113281-15.925781c.964844-10.539063-1.375-21.117188-6.699219-30.265626-9.140625-18.5-22.253906-34.757812-38.398437-47.609374 9.132812-2.226563 17.476562-6.9375 24.097656-13.609376 9.707031-10.699218 15.046875-24.648437 14.96875-39.089843 16.597656-6.328125 27.027344-22.855469 25.597656-40.5625 12.375-10.988281 18.746094-27.234375 17.136719-43.707031 16.980469-13.292969 18.722656-37.546876 16.484375-52.367188 7.898437-12.753906 10.988281-27.90625 8.714844-42.734375 8.832031-13.527344 12.117187-29.933594 9.171875-45.816406 4.820312-4.722657 7.804687-11.003907 8.421875-17.722657.035156-9.230468-4.371094-17.914062-11.84375-23.332031zm-244.15625 412.570313c-21.546875-5.417969-39.164063-20.886719-47.324219-41.550782 1.542969.246094 3.097656.402344 4.660156.460938 13.472656.253906 26.460938 5.066406 36.84375 13.65625.40625.324219.84375.613281 1.308594.851562.410156.328126.855469.613282 1.320312.855469 2.039063.863281 4.34375.863281 6.382813 0 .46875-.242187.910156-.527343 1.324219-.855469.460937-.238281.898437-.527343 1.304687-.851562 10.34375-8.660156 23.359375-13.484375 36.847657-13.65625 1.558593-.058594 3.117187-.214844 4.660156-.460938-8.164063 20.664063-25.78125 36.132813-47.328125 41.550782zm-111.957031-275.464844c-14.011719 1.488281-28.179688.417969-41.8125-3.15625v-.113281c1.445312-11.554688 1.929687-23.210938 1.449218-34.847657 5.066406 1.398438 10.300782 2.09375 15.558594 2.0625 7.582031-.082031 15.121094-1.171874 22.414062-3.242187 4.058594 12.695313 4.878907 26.203125 2.390626 39.296875zm-12.714844 17.605469c2.414062 0 5.019531-.09375 7.636718-.199219-3.691406 8.769531-4.585937 18.464844-2.558593 27.761719 1.027343 3.570312 2.621093 6.957031 4.71875 10.027343-8.785157 4.75-18.679688 7.078126-28.664063 6.75-7.847656-14.636718-11.765625-31.058593-11.367187-47.660156 9.902343 2.351563 20.058593 3.464844 30.234375 3.320313zm22.519531 49.738281c7.902344 4.667969 16.441406 8.152344 25.351563 10.34375v25.925781c-1.304688-.300781-2.558594-.632812-3.90625-.921875-3.816407-.855468-7.628907-1.707031-11.425782-2.648437-14.746094-3.511719-28.230468-11.039063-38.964844-21.742188 10.421876-1.140625 20.382813-4.910156 28.945313-10.957031zm76.554687 152.125v-88.628906h17.066407v95.054687c-5.417969-2.804687-11.144531-4.960937-17.066407-6.425781zm-34.132812-17.519531v-71.109375h17.066406v86.46875c-4.378906.5625-8.777344-.8125-12.058594-3.765625-3.277343-2.949219-5.109374-7.183594-5.007812-11.59375zm68.265625-71.109375h17.066406v88.628906c-5.921875 1.464844-11.652343 3.621094-17.066406 6.425781zm34.132813 0h17.066406v71.035156c.117187 4.421875-1.703125 8.671875-4.984375 11.640625s-7.695313 4.355469-12.082031 3.792969zm17.066406-17.066406h-119.464844v-34.132813h119.464844zm17.066406-36.085938c8.910156-2.191406 17.453125-5.675781 25.351562-10.34375 8.566407 6.046875 18.527344 9.816406 28.945313 10.957031-10.726563 10.699219-24.203125 18.222657-38.9375 21.742188-3.796875.933593-7.609375 1.792969-11.425781 2.648437-1.304688.289063-2.558594.621094-3.90625.921875zm76.980469-80.957031v.113281c-13.632813 3.574219-27.800781 4.644531-41.8125 3.15625-2.5-13.105469-1.675781-26.628906 2.386719-39.339844 7.296874 2.070313 14.835937 3.160156 22.417968 3.242188 5.25.042968 10.480469-.636719 15.546875-2.019532-.476562 11.636719.011719 23.292969 1.460938 34.847657zm-10.242188 65.214843c-9.980469.320313-19.871093-2.007812-28.664062-6.75 2.105469-3.066406 3.699219-6.453124 4.71875-10.027343 2.03125-9.296875 1.136719-18.992188-2.558594-27.761719 2.621094.105469 5.222656.199219 7.636719.199219 10.167968.144531 20.316406-.972657 30.210937-3.320313.394531 16.601563-3.519531 33.023438-11.367187 47.660156zm-17.246093-124.980468c10.351562-13.445313 23.09375-24.859375 37.589843-33.671875-1.875 5.972656-3.644531 12.226562-5.28125 18.941406-1.707031 7.085937-3.082031 13.886719-4.140625 20.53125-3.726562 2.332031-14.019531 6.742187-33.277344 2.058594 1.550782-2.714844 3.257813-5.339844 5.109376-7.859375zm-154.453126 106.042968c25.371094-25.371093 9.386719-45.824218 3.550782-51.773437-.789063-.761719-1.480469-1.621094-2.054688-2.558594-.042968-.078125-.128906-.109375-.179687-.1875-.371094-.507812-.800781-.972656-1.28125-1.382812-.320313-.359375-.667969-.695313-1.039063-.996094-.425781-.242187-.871094-.445313-1.332031-.609375-.542969-.28125-1.117187-.507812-1.707031-.671875-.09375 0-.164063-.085937-.257813-.09375-6.269531-.980469-12.625-1.289063-18.960937-.921875 4.820312-3.890625 10.75-6.15625 16.941406-6.46875.464844-.007812.929688-.058594 1.390625-.144531 3.070313-.402344 5.652344-2.507813 6.664063-5.4375.664062-1.074219 1.511718-2.023438 2.507812-2.804688 4.945312-3.207031 11.050781-4.074219 16.691406-2.375 1.613282.453125 3.183594 1.039063 4.691406 1.757813 1.125.488281 2.21875 1.035156 3.277344 1.648437 18.355469 10.488281 24.859375 33.449219 24.859375 49.921875 0 12.609375 12.613281 30.128906 23.246094 42.664063h-96.515625zm-98.132812-106.042968c1.855469 2.519531 3.566406 5.144531 5.121094 7.859375-19.34375 4.710937-29.636719.230469-33.28125-2.023438-1.058594-6.65625-2.40625-13.464843-4.136719-20.566406-1.640625-6.714844-3.414063-12.976563-5.285156-18.941406 14.496093 8.8125 27.238281 20.226562 37.582031 33.671875zm-16.996094 219.410156c-7.121094-8.238281-10.773437-18.910156-10.191406-29.78125.101562-.230469.265625-.417969.351562-.660156 1.535157-4.453125-.832031-9.308594-5.28125-10.84375l-.726562-.222656c-.328125-.117188-.660156-.214844-1-.289063-9.351562-1.449219-16.742188-8.699219-18.371094-18.023437h.257813c4.308593 0 7.9375-3.210938 8.464843-7.488282.527344-4.277344-2.214843-8.273437-6.394531-9.324218-2.488281-.605469-4.867187-1.609376-7.039062-2.976563-7.984375-5.457031-12.769531-14.496094-12.800781-24.167969.222656 0 .460937.085938.683593.085938 4.316407.023437 7.96875-3.183594 8.507813-7.464844.539062-4.285156-2.203125-8.296875-6.390625-9.34375-15.957031-4.070312-19.667969-18.875-20.113281-29.945312 2.371093 1.089843 4.832031 1.96875 7.355468 2.636718.699219.175782 1.414063.265625 2.132813.265625 4.304687.003907 7.9375-3.195312 8.476562-7.46875.535157-4.269531-2.191406-8.269531-6.359375-9.332031-15.761718-4.054688-19.585937-18.492188-20.140625-29.5 2.074219.875 4.207031 1.597656 6.382813 2.15625.703125.183594 1.425781.273438 2.152344.273438 4.304687.007812 7.941406-3.191407 8.480468-7.460938.542969-4.273438-2.183594-8.277344-6.355468-9.339844-16.402344-4.199218-19.882813-19.6875-20.171876-30.824218 7.410157 4.644531 15.222657 8.621093 23.335938 11.878906 4.359375 1.792968 9.347656-.289063 11.136719-4.648438 1.792969-4.359375-.289063-9.347656-4.648438-11.136718-34.460937-14.164063-37.292969-27.195313-37.378906-27.214844-.039063-3.710938 1.722656-7.210938 4.730469-9.386719 2.652344-1.953125 6.097656-2.476563 9.214844-1.40625 13.09375 4.351563 25.917968 9.480469 38.398437 15.359375 4.714844 11.546875 8.519531 23.445312 11.382813 35.585938 2.933593 11.699218 4.886718 23.625 5.839843 35.652343.507813 11.046875.042969 22.117188-1.390625 33.082031l-.574218 5.777344c-4.183594 30.746094 4.636718 61.839844 24.335937 85.8125 13.476563 14.945313 31.199219 25.417969 50.792969 30 3.917968.964844 7.851562 1.84375 11.773437 2.734375 2.5625.570313 5.121094 1.191407 7.640625 1.789063v21.839844c-12.515625 7.402343-24.625 15.46875-36.285156 24.15625-11.105469.503906-21.960938-3.390626-30.214844-10.835938zm-15.429687 103.925781c-3.816407-6.699219 1.707031-18.933593 3.882812-22.664062.238281-.390625.441407-.796875.613281-1.222657 11.71875-29.300781 55.46875-59.644531 77.40625-73.382812v38.953125c.152344 8.488281 3.511719 16.609375 9.402344 22.722656 1.398438 7.824219 3.90625 15.410157 7.441406 22.527344-3.683593 1.476563-7.449218 3.175781-11.289062 5.121094-5.0625 2.625-9.953125 5.574219-14.632812 8.832031-16.605469 3.894531-33.585938 5.972656-50.636719 6.1875-11.691407 0-19.566407-2.507812-22.1875-7.074219zm65.554687 32.289063c1.347656-4.101563 10.238282-14.949219 29.703125-25.042969 4.164063-2.109375 8.457031-3.953125 12.851563-5.523437 2.9375 3.683593 6.1875 7.109374 9.710937 10.242187-1.382812 1.363281-2.765625 2.722656-4.097656 4.265625-3.414063 2.238281-6.945313 4.296875-10.570313 6.167969-19.441406 10.054687-33.433593 11.128906-37.582031 9.890625zm36.554688 48.324218c-.945313-4.265624 1.050781-18.140624 12.355468-36.878906 3.050782-5.109375 6.511719-9.960937 10.351563-14.507812.164063-.144532.289063-.289063.445313-.433594l.195312-.171875.058594-.09375c.078125-.078125.171875-.152344.25-.238281 1.90625-2.230469 3.957031-4.332032 6.140625-6.289063 2.667969 1.550781 5.515625 3.015625 8.535156 4.394531-1.480469 5.78125-3.585937 11.386719-6.289063 16.707032-.171874.34375-.3125.699218-.425781 1.066406-1.375 2.816406-2.910156 5.617188-4.59375 8.363281-11.375 18.824219-22.800781 26.992188-27.007812 28.082031zm56.609375 11.324219c-3.027344-3.140625-8.53125-16.050781-8.53125-37.929687 0-1.648438.050781-3.304688.101562-5.050782 2.574219-5.332031 4.65625-10.882812 6.230469-16.589843.695312.191406 1.417969.289062 2.140625.296875h.121094c.71875-.007813 1.4375-.105469 2.132812-.296875 1.550781 5.726562 3.636719 11.296875 6.21875 16.640625.058594 1.628906.121094 3.285156.121094 5 0 21.878906-5.503906 34.789062-8.535156 37.929687zm56.59375-11.324219c-4.207031-1.089843-15.617188-9.265624-27.050781-28.082031-1.722657-2.804687-3.300782-5.695312-4.726563-8.660156-.113281-.292969-.230469-.574219-.367187-.855469-2.6875-5.28125-4.769532-10.847656-6.203126-16.597656 3.019532-1.382812 5.878907-2.839844 8.53125-4.394531 2.183594 1.960937 4.238282 4.0625 6.144532 6.289062.128906.144531.273437.273438.410156.410157l.195312.207031.207032.203125c3.898437 4.578125 7.410156 9.476562 10.503906 14.632812 11.304688 18.707032 13.304688 32.589844 12.355469 36.847656zm-1.023438-58.238281c-3.652343-1.886719-7.203125-3.96875-10.632812-6.230469-1.347657-1.535156-2.707031-2.847656-4.0625-4.199218 3.527343-3.125 6.78125-6.550782 9.71875-10.238282 4.378906 1.5625 8.652343 3.402344 12.800781 5.503907 19.5 10.113281 28.398438 20.957031 29.746094 25.0625-4.136719 1.253906-18.132813.179687-37.570313-9.898438zm98.636719-46.261719c.171875.425782.378906.832032.613281 1.222657 1.808594 3.019531 7.800781 15.742187 3.890625 22.636719-2.558594 4.585937-10.460937 7.101562-22.183594 7.101562-17.058593-.210938-34.039062-2.28125-50.648437-6.167969-4.691406-3.265625-9.589844-6.222656-14.667969-8.851562-3.8125-1.953125-7.558594-3.644531-11.246094-5.121094 3.542969-7.113281 6.050782-14.699219 7.449219-22.527344 5.890625-6.125 9.246094-14.257812 9.386719-22.757812v-38.953125c21.914062 13.773437 65.707031 44.117187 77.40625 73.417968zm5.972656-121.835937c-.351562.082031-.699218.1875-1.039062.304687-.257813.070313-.503906.136719-.683594.207032-4.453125 1.535156-6.816406 6.390625-5.28125 10.84375.082031.242187.246094.429687.347656.660156.585938 10.871094-3.066406 21.542969-10.1875 29.78125-8.265625 7.414062-19.117187 11.28125-30.207031 10.757812-11.675781-8.6875-23.800781-16.753906-36.328125-24.15625v-21.835937c2.558594-.597656 5.121094-1.222656 7.679688-1.792969 3.925781-.855468 7.859374-1.765625 11.777343-2.730468 19.59375-4.585938 37.316407-15.054688 50.789063-30.003907 19.703125-23.96875 28.519531-55.066406 24.335937-85.8125l-.570312-5.777343c-1.433594-10.964844-1.898438-22.035157-1.390625-33.082032.949218-12.027344 2.902344-23.953125 5.835937-35.652344 2.867188-12.140624 6.671875-24.035156 11.382813-35.585937 12.484375-5.863281 25.308594-10.980469 38.402344-15.316406 3.117187-1.070313 6.558593-.542969 9.214843 1.410156 2.855469 2.058594 4.585938 5.328125 4.675781 8.847656 0 .128907-2.335937 13.363281-37.402343 27.785157-4.359375 1.789062-6.441407 6.777343-4.648438 11.136718 1.789063 4.359375 6.777344 6.441406 11.136719 4.648438 8.136719-3.277344 15.960938-7.273438 23.386719-11.945313-.246094 11.09375-3.683594 26.605469-20.222657 30.855469-4.25 1.003906-7.058593 5.054688-6.503906 9.386719.554688 4.332031 4.289063 7.546875 8.65625 7.449219.714844 0 1.429688-.09375 2.125-.273438 2.183594-.566406 4.328125-1.296875 6.40625-2.183594-.484375 10.992188-4.265625 25.445313-20.164062 29.527344-4.171875 1.0625-6.894532 5.0625-6.359375 9.332031.539062 4.273438 4.171875 7.472657 8.476562 7.46875.71875 0 1.433594-.089843 2.132813-.265625 2.542968-.671875 5.023437-1.5625 7.414062-2.660156-.410156 11.050781-4.085937 25.863281-20.195312 30.003906-4.1875 1.046875-6.933594 5.058594-6.394532 9.339844.539063 4.285156 4.191407 7.492188 8.507813 7.46875.222656 0 .453125-.066406.675781-.085938-.078125 9.773438-4.964844 18.878907-13.066406 24.347657-2.082031 1.28125-4.359375 2.226562-6.738281 2.796875-4.179688 1.046875-6.921875 5.046875-6.394531 9.324218.527343 4.273438 4.15625 7.488282 8.464843 7.488282h.257813c-1.640625 9.300781-9.011719 16.53125-18.347656 17.988281zm0 0"/></svg>